<?xml version="1.0" standalone="no"?>
<!DOCTYPE svg PUBLIC "-//W3C//DTD SVG 20010904//EN"
 "http://www.w3.org/TR/2001/REC-SVG-20010904/DTD/svg10.dtd">
<svg version="1.0" xmlns="http://www.w3.org/2000/svg"
 width="577.000000pt" height="577.000000pt" viewBox="0 0 577.000000 577.000000"
 preserveAspectRatio="xMidYMid meet">
<metadata>
Created by potrace 1.14, written by Peter Selinger 2001-2017
</metadata>
<g transform="translate(0.000000,577.000000) scale(0.100000,-0.100000)"
fill="#000000" stroke="none">
<path d="M2974 5661 c4 -5 -2 -8 -11 -7 -27 4 -76 -15 -91 -36 -15 -21 -42
-24 -42 -5 0 8 -3 9 -8 1 -4 -6 -15 -10 -25 -8 -9 1 -15 -2 -11 -7 3 -5 10 -7
15 -4 12 8 11 -6 -1 -25 -6 -10 -10 -11 -10 -3 0 9 -7 10 -27 2 -20 -7 -28 -6
-35 3 -5 9 -8 7 -9 -7 -1 -11 -1 -24 1 -30 1 -5 -8 -1 -20 10 -16 15 -20 15
-15 3 4 -9 1 -19 -6 -24 -8 -4 -10 -3 -5 4 4 7 3 12 -2 12 -12 0 -24 -29 -17
-41 4 -5 -1 -6 -10 -3 -12 5 -13 9 -4 20 7 8 9 17 5 21 -3 3 -6 1 -6 -6 0 -7
-5 -9 -10 -6 -6 4 -10 3 -9 -2 3 -17 -1 -33 -8 -32 -20 3 -26 -2 -13 -11 13
-8 12 -10 -5 -11 -11 -1 -24 -1 -28 0 -5 1 -5 -3 -2 -9 4 -7 -2 -14 -13 -17
-14 -3 -19 -10 -14 -21 5 -14 3 -15 -10 -5 -8 7 -18 10 -21 6 -4 -3 -7 -1 -7
6 0 9 -4 9 -14 -1 -8 -7 -12 -16 -10 -19 2 -4 -5 -9 -16 -12 -20 -5 -62 -65
-54 -78 2 -4 0 -10 -6 -14 -5 -3 -10 -1 -10 4 0 6 -7 11 -16 11 -14 0 -14 -3
-4 -15 7 -8 10 -15 6 -15 -4 0 0 -13 8 -29 9 -16 12 -32 8 -36 -4 -5 -2 -5 4
-2 7 4 14 0 18 -8 3 -8 0 -15 -6 -15 -6 0 -8 -3 -5 -7 4 -3 1 -13 -5 -22 -10
-13 -10 -14 2 -3 19 17 28 15 40 -7 7 -14 7 -22 -2 -27 -7 -5 -8 -3 -3 7 8 12
6 12 -8 0 -17 -14 -24 -26 -9 -17 4 2 14 1 22 -4 10 -6 6 -17 -19 -48 -21 -27
-28 -43 -20 -48 8 -5 7 -9 -2 -15 -8 -5 -9 -9 -3 -9 5 0 11 -10 12 -22 5 -48
3 -135 -3 -168 -3 -19 -5 -44 -5 -55 4 -48 3 -72 -3 -95 -3 -14 -8 -34 -10
-45 -8 -37 13 -148 38 -200 18 -36 37 -58 64 -74 28 -15 40 -18 43 -9 5 15 57
-88 64 -128 3 -16 9 -45 13 -66 14 -63 11 -246 -4 -262 -8 -7 -11 -16 -8 -20
4 -3 1 -6 -5 -6 -6 0 -18 -13 -26 -29 -20 -38 -93 -111 -112 -111 -18 0 -135
-41 -196 -69 -79 -35 -101 -44 -136 -48 -18 -2 -45 -8 -60 -14 -15 -6 -29 -10
-31 -9 -2 1 -7 -2 -10 -7 -9 -13 -132 -53 -162 -53 -14 0 -29 -3 -33 -7 -4 -5
-11 -8 -14 -9 -28 -2 -72 -17 -72 -25 0 -5 -7 -9 -15 -9 -8 0 -15 -4 -15 -8 0
-5 -11 -14 -25 -20 -19 -9 -49 -56 -55 -87 0 -3 -7 -20 -16 -40 -8 -19 -12
-35 -9 -35 2 0 -8 -22 -24 -49 -40 -67 -67 -130 -75 -176 -4 -22 -21 -85 -36
-140 -51 -177 -59 -256 -44 -425 7 -86 14 -173 18 -240 2 -30 5 -55 6 -55 1 0
3 -34 6 -75 2 -41 7 -100 10 -130 12 -114 8 -274 -8 -330 -9 -30 -16 -62 -16
-70 -1 -8 -5 -35 -11 -60 -5 -25 -12 -89 -15 -143 -3 -54 -10 -107 -16 -117
-6 -11 -8 -20 -4 -20 3 0 1 -6 -5 -13 -6 -8 -8 -17 -5 -20 4 -3 3 -14 -1 -24
-4 -10 -7 -28 -6 -40 1 -13 -1 -23 -6 -23 -4 0 -8 -21 -8 -48 0 -26 -5 -67
-11 -91 -14 -57 -8 -367 10 -501 3 -19 7 -66 11 -105 6 -74 12 -131 20 -192 2
-21 7 -60 10 -88 3 -27 7 -59 9 -70 3 -20 12 -20 1659 -23 l1656 -2 -5 22 c-4
21 -7 39 -18 118 -2 14 -5 25 -6 25 -1 0 -3 22 -6 49 -2 27 -7 60 -10 75 -10
47 -15 86 -15 110 1 12 -2 27 -5 33 -6 9 -13 74 -17 150 -1 16 -4 28 -7 28 -3
0 -7 12 -8 28 -1 15 -5 38 -8 52 -3 14 -7 42 -10 63 -3 20 -12 56 -21 80 -8
23 -17 78 -19 121 -3 44 -9 85 -15 92 -7 8 -7 14 1 19 6 3 8 11 5 16 -7 10
-11 64 -20 229 -5 111 -7 133 -21 210 -4 19 -8 49 -10 65 -4 37 -12 90 -14 90
-1 0 -3 25 -6 55 -2 30 -6 78 -8 105 -3 28 -7 61 -10 75 -3 14 -7 41 -10 60
-2 19 -7 46 -10 60 -3 14 -8 42 -11 64 -3 21 -8 42 -10 46 -3 5 -1 12 5 15 7
4 8 11 2 18 -11 14 -23 108 -37 312 -2 22 -4 40 -5 40 -1 0 -3 14 -5 30 -1 17
-5 57 -9 90 -3 33 -8 80 -11 105 -10 101 -16 147 -20 180 -3 19 -7 53 -10 75
-2 22 -7 58 -10 80 -3 22 -7 54 -9 71 -8 56 -35 105 -78 143 -23 20 -45 35
-50 33 -4 -1 -8 2 -8 6 0 5 -6 9 -12 9 -16 0 -160 70 -168 81 -5 8 -29 20
-149 72 -71 31 -206 83 -206 80 0 -2 -23 5 -78 25 -26 9 -53 18 -60 19 -33 8
-58 25 -86 60 -17 21 -31 42 -31 46 0 4 -21 29 -47 55 -47 46 -47 47 -45 108
4 113 23 197 44 197 6 0 8 3 5 7 -4 3 -1 16 6 27 20 31 46 113 39 122 -4 4 7
3 23 -1 56 -16 84 -10 113 25 50 60 92 191 84 267 -2 27 -4 55 -3 63 6 83 9
111 17 150 4 25 7 48 6 53 -1 4 2 7 7 7 5 0 8 11 5 25 -2 14 0 25 4 25 5 0 8
11 7 25 -2 14 1 25 6 25 4 0 5 7 2 17 -5 12 -3 14 7 8 9 -5 11 -4 6 4 -4 6 -2
19 5 27 10 12 9 13 -7 7 -17 -6 -18 -5 -4 12 9 11 10 16 3 11 -8 -4 -13 -2
-13 8 0 8 6 17 13 20 6 3 1 3 -13 0 -21 -5 -23 -4 -12 7 7 8 20 14 30 14 11 0
16 6 14 19 -3 18 -2 19 15 5 17 -13 17 -13 4 4 -11 13 -17 15 -28 6 -11 -10
-12 -14 -1 -22 9 -6 8 -7 -5 -3 -10 3 -21 6 -23 6 -3 0 -2 5 1 10 3 6 -2 10
-11 10 -29 0 -2 18 31 21 17 2 36 0 42 -4 9 -6 11 -3 7 7 -3 9 -10 16 -16 16
-5 0 -7 4 -3 9 3 5 -1 15 -8 23 -7 7 -12 27 -10 44 2 19 -2 38 -11 47 -12 12
-13 17 -3 20 9 4 9 6 -1 6 -7 1 -10 5 -7 11 3 6 -1 7 -9 4 -11 -4 -16 0 -16
11 0 9 -4 13 -10 10 -5 -3 -10 -2 -10 4 0 15 -72 91 -81 85 -4 -2 -11 5 -14
17 -4 11 -9 18 -12 15 -3 -3 -18 8 -33 24 -15 16 -30 27 -33 23 -4 -3 -9 2
-13 11 -3 9 -12 16 -20 16 -8 0 -14 5 -14 10 0 6 -3 9 -7 8 -15 -3 -73 28 -66
35 6 6 -11 11 -29 8 -4 0 -5 6 -2 13 4 11 -1 14 -20 12 -14 -2 -23 1 -20 5 4
8 -25 14 -48 10 -5 0 -8 4 -8 10 0 6 -8 8 -19 4 -11 -3 -25 1 -34 10 -9 8 -24
16 -34 18 -10 1 -23 6 -30 10 -6 4 -15 3 -18 -3 -5 -8 -11 -7 -21 1 -8 6 -14
8 -14 4 0 -4 -8 -1 -17 6 -15 12 -16 12 -8 -1 6 -12 5 -13 -6 -2 -15 14 -43
17 -35 3z m-457 -263 c-3 -8 -6 -5 -6 6 -1 11 2 17 5 13 3 -3 4 -12 1 -19z
m1176 -285 c-7 -2 -21 -2 -30 0 -10 3 -4 5 12 5 17 0 24 -2 18 -5z m-1657
-3461 c-1 -108 -5 -202 -8 -207 -4 -6 -10 -38 -13 -70 -4 -33 -11 -67 -15 -75
-4 -8 -5 -20 -3 -27 2 -6 0 -14 -5 -16 -4 -3 -8 87 -8 201 1 114 -2 230 -6
259 -5 38 -3 55 7 63 8 6 19 27 25 46 7 19 15 32 20 29 5 -3 8 -94 6 -203z
m-71 -832 c-5 -8 -11 -8 -17 -2 -6 6 -7 16 -3 22 5 8 11 8 17 2 6 -6 7 -16 3
-22z"/>
<path d="M2750 5590 c-8 -5 -12 -11 -9 -14 2 -3 11 -1 19 4 8 5 12 11 9 14 -2
3 -11 1 -19 -4z"/>
</g>
</svg>
